<svg width="512" xmlns="http://www.w3.org/2000/svg" height="512" id="screenshot-f6fe0475-d562-80ec-8006-4a8986c38279" viewBox="-37.5 0 390 316" xmlns:xlink="http://www.w3.org/1999/xlink" fill="none" version="1.1"><g id="shape-f6fe0475-d562-80ec-8006-4a8986c38279"><g class="frame-container-wrapper"><g class="frame-container-blur"><g class="frame-container-shadows"><g fill="none"><g class="fills" id="fills-f6fe0475-d562-80ec-8006-4a8986c38279"><rect rx="0" ry="0" x="0" y="0" width="314" height="314.99999999999994" transform="matrix(1.000000, 0.000000, 0.000000, 1.000000, 0.000000, 0.000000)" class="frame-background"/></g><g class="frame-children"><g id="shape-f6fe0475-d562-80ec-8006-4a89679f45df"><g class="fills" id="fills-f6fe0475-d562-80ec-8006-4a89679f45df"><rect rx="20" ry="20" x="48.00000000000006" y="49" transform="matrix(1.000000, 0.000000, 0.000000, 1.000000, 0.000000, 0.000000)" width="220" height="220" style="fill: rgb(255, 255, 255); fill-opacity: 1;"/></g></g><g id="shape-f6fe0475-d562-80ec-8006-4a89679f45e1"><g class="frame-container-wrapper"><g class="frame-container-blur"><g class="frame-container-shadows"><g fill="none"><g class="fills" id="fills-f6fe0475-d562-80ec-8006-4a89679f45e1"><rect rx="0" ry="0" x="202.50000000000006" y="121.5" width="149.99999999999994" height="75" transform="matrix(0.000000, 1.000000, -1.000000, 0.000000, 436.500000, -118.500000)" class="frame-background"/></g><g class="frame-children"><g id="shape-f6fe0475-d562-80ec-8006-4a89679f45e2"><g class="fills" id="fills-f6fe0475-d562-80ec-8006-4a89679f45e2"><rect rx="6.818181818181813" ry="6.818181818181813" x="270.6818181818182" y="121.49999999999994" transform="matrix(0.000000, 1.000000, -1.000000, 0.000000, 436.500000, -118.500000)" width="13.636363636363626" height="75" style="fill: rgb(255, 255, 255); fill-opacity: 1;"/></g></g><g id="shape-f6fe0475-d562-80ec-8006-4a89679f45e3"><g class="fills" id="fills-f6fe0475-d562-80ec-8006-4a89679f45e3"><rect rx="6.818181818181813" ry="6.818181818181813" x="270.6818181818182" y="87.40909090909082" transform="matrix(0.000000, 1.000000, -1.000000, 0.000000, 402.409091, -152.590909)" width="13.636363636363626" height="75" style="fill: rgb(255, 255, 255); fill-opacity: 1;"/></g></g><g id="shape-f6fe0475-d562-80ec-8006-4a89679f45e4"><g class="fills" id="fills-f6fe0475-d562-80ec-8006-4a89679f45e4"><rect rx="6.818181818181813" ry="6.818181818181813" x="270.6818181818182" y="53.31818181818181" transform="matrix(0.000000, 1.000000, -1.000000, 0.000000, 368.318182, -186.681818)" width="13.636363636363626" height="75" style="fill: rgb(255, 255, 255); fill-opacity: 1;"/></g></g><g id="shape-f6fe0475-d562-80ec-8006-4a89679f45e5"><g class="fills" id="fills-f6fe0475-d562-80ec-8006-4a89679f45e5"><rect rx="6.818181818181756" ry="6.818181818181756" x="270.6818181818183" y="155.590909090909" transform="matrix(0.000000, 1.000000, -1.000000, 0.000000, 470.590909, -84.409091)" width="13.636363636363512" height="75" style="fill: rgb(255, 255, 255); fill-opacity: 1;"/></g></g><g id="shape-f6fe0475-d562-80ec-8006-4a89679f45e6"><g class="fills" id="fills-f6fe0475-d562-80ec-8006-4a89679f45e6"><rect rx="6.818181818181756" ry="6.818181818181756" x="270.6818181818183" y="189.6818181818182" transform="matrix(0.000000, 1.000000, -1.000000, 0.000000, 504.681818, -50.318182)" width="13.636363636363512" height="75" style="fill: rgb(255, 255, 255); fill-opacity: 1;"/></g></g></g></g></g></g></g></g><g id="shape-f6fe0475-d562-80ec-8006-4a89679f45e7"><g class="frame-container-wrapper"><g class="frame-container-blur"><g class="frame-container-shadows"><g fill="none"><g class="fills" id="fills-f6fe0475-d562-80ec-8006-4a89679f45e7"><rect rx="0" ry="0" x="83.00000000000006" y="0" width="150" height="75" transform="matrix(1.000000, 0.000000, 0.000000, 1.000000, 0.000000, 0.000000)" class="frame-background"/></g><g class="frame-children"><g id="shape-f6fe0475-d562-80ec-8006-4a89679f45e8"><g class="fills" id="fills-f6fe0475-d562-80ec-8006-4a89679f45e8"><rect rx="6.818181818181813" ry="6.818181818181813" x="151.1818181818183" y="0" transform="matrix(1.000000, 0.000000, 0.000000, 1.000000, 0.000000, 0.000000)" width="13.636363636363626" height="75" style="fill: rgb(255, 255, 255); fill-opacity: 1;"/></g></g><g id="shape-f6fe0475-d562-80ec-8006-4a89679f45e9"><g class="fills" id="fills-f6fe0475-d562-80ec-8006-4a89679f45e9"><rect rx="6.818181818181813" ry="6.818181818181813" x="117.09090909090907" y="0" transform="matrix(1.000000, 0.000000, 0.000000, 1.000000, 0.000000, 0.000000)" width="13.636363636363626" height="75" style="fill: rgb(255, 255, 255); fill-opacity: 1;"/></g></g><g id="shape-f6fe0475-d562-80ec-8006-4a89679f45ea"><g class="fills" id="fills-f6fe0475-d562-80ec-8006-4a89679f45ea"><rect rx="6.818181818181813" ry="6.818181818181813" x="83.00000000000006" y="0" transform="matrix(1.000000, 0.000000, 0.000000, 1.000000, 0.000000, 0.000000)" width="13.636363636363626" height="75" style="fill: rgb(255, 255, 255); fill-opacity: 1;"/></g></g><g id="shape-f6fe0475-d562-80ec-8006-4a89679f45eb"><g class="fills" id="fills-f6fe0475-d562-80ec-8006-4a89679f45eb"><rect rx="6.818181818181756" ry="6.818181818181756" x="185.2727272727273" y="0" transform="matrix(1.000000, 0.000000, 0.000000, 1.000000, 0.000000, 0.000000)" width="13.636363636363512" height="75" style="fill: rgb(255, 255, 255); fill-opacity: 1;"/></g></g><g id="shape-f6fe0475-d562-80ec-8006-4a89679f45ec"><g class="fills" id="fills-f6fe0475-d562-80ec-8006-4a89679f45ec"><rect rx="6.818181818181813" ry="6.818181818181813" x="219.36363636363654" y="0" transform="matrix(1.000000, 0.000000, 0.000000, 1.000000, 0.000000, 0.000000)" width="13.636363636363626" height="75" style="fill: rgb(255, 255, 255); fill-opacity: 1;"/></g></g></g></g></g></g></g></g><g id="shape-f6fe0475-d562-80ec-8006-4a89679f45ed"><g class="frame-container-wrapper"><g class="frame-container-blur"><g class="frame-container-shadows"><g fill="none"><g class="fills" id="fills-f6fe0475-d562-80ec-8006-4a89679f45ed"><rect rx="0" ry="0" x="83.00000000000006" y="241" width="150" height="75" transform="matrix(1.000000, 0.000000, 0.000000, 1.000000, 0.000000, 0.000000)" class="frame-background"/></g><g class="frame-children"><g id="shape-f6fe0475-d562-80ec-8006-4a89679f45ee"><g class="fills" id="fills-f6fe0475-d562-80ec-8006-4a89679f45ee"><rect rx="6.818181818181813" ry="6.818181818181813" x="151.1818181818183" y="241" transform="matrix(1.000000, 0.000000, 0.000000, 1.000000, 0.000000, 0.000000)" width="13.636363636363626" height="75" style="fill: rgb(255, 255, 255); fill-opacity: 1;"/></g></g><g id="shape-f6fe0475-d562-80ec-8006-4a89679f45ef"><g class="fills" id="fills-f6fe0475-d562-80ec-8006-4a89679f45ef"><rect rx="6.818181818181813" ry="6.818181818181813" x="117.09090909090907" y="241" transform="matrix(1.000000, 0.000000, 0.000000, 1.000000, 0.000000, 0.000000)" width="13.636363636363626" height="75" style="fill: rgb(255, 255, 255); fill-opacity: 1;"/></g></g><g id="shape-f6fe0475-d562-80ec-8006-4a89679f45f0"><g class="fills" id="fills-f6fe0475-d562-80ec-8006-4a89679f45f0"><rect rx="6.818181818181813" ry="6.818181818181813" x="83.00000000000006" y="241" transform="matrix(1.000000, 0.000000, 0.000000, 1.000000, 0.000000, 0.000000)" width="13.636363636363626" height="75" style="fill: rgb(255, 255, 255); fill-opacity: 1;"/></g></g><g id="shape-f6fe0475-d562-80ec-8006-4a89679f45f1"><g class="fills" id="fills-f6fe0475-d562-80ec-8006-4a89679f45f1"><rect rx="6.818181818181756" ry="6.818181818181756" x="185.2727272727273" y="241" transform="matrix(1.000000, 0.000000, 0.000000, 1.000000, 0.000000, 0.000000)" width="13.636363636363512" height="75" style="fill: rgb(255, 255, 255); fill-opacity: 1;"/></g></g><g id="shape-f6fe0475-d562-80ec-8006-4a89679f45f2"><g class="fills" id="fills-f6fe0475-d562-80ec-8006-4a89679f45f2"><rect rx="6.818181818181813" ry="6.818181818181813" x="219.36363636363654" y="241" transform="matrix(1.000000, 0.000000, 0.000000, 1.000000, 0.000000, 0.000000)" width="13.636363636363626" height="75" style="fill: rgb(255, 255, 255); fill-opacity: 1;"/></g></g></g></g></g></g></g></g><g id="shape-f6fe0475-d562-80ec-8006-4a89679f45f3"><g class="frame-container-wrapper"><g class="frame-container-blur"><g class="frame-container-shadows"><g fill="none"><g class="fills" id="fills-f6fe0475-d562-80ec-8006-4a89679f45f3"><rect rx="0" ry="0" x="-37.49999999999994" y="121.5" width="150" height="75" transform="matrix(0.000000, 1.000000, -1.000000, 0.000000, 196.500000, 121.500000)" class="frame-background"/></g><g class="frame-children"><g id="shape-f6fe0475-d562-80ec-8006-4a89679f45f4"><g class="fills" id="fills-f6fe0475-d562-80ec-8006-4a89679f45f4"><rect rx="6.818181818181813" ry="6.818181818181813" x="30.681818181818244" y="121.49999999999994" transform="matrix(0.000000, 1.000000, -1.000000, 0.000000, 196.500000, 121.500000)" width="13.636363636363626" height="75" style="fill: rgb(255, 255, 255); fill-opacity: 1;"/></g></g><g id="shape-f6fe0475-d562-80ec-8006-4a89679f45f5"><g class="fills" id="fills-f6fe0475-d562-80ec-8006-4a89679f45f5"><rect rx="6.818181818181813" ry="6.818181818181813" x="30.681818181818244" y="87.40909090909082" transform="matrix(0.000000, 1.000000, -1.000000, 0.000000, 162.409091, 87.409091)" width="13.636363636363626" height="75" style="fill: rgb(255, 255, 255); fill-opacity: 1;"/></g></g><g id="shape-f6fe0475-d562-80ec-8006-4a89679f45f6"><g class="fills" id="fills-f6fe0475-d562-80ec-8006-4a89679f45f6"><rect rx="6.818181818181813" ry="6.818181818181813" x="30.681818181818244" y="53.31818181818181" transform="matrix(0.000000, 1.000000, -1.000000, 0.000000, 128.318182, 53.318182)" width="13.636363636363626" height="75" style="fill: rgb(255, 255, 255); fill-opacity: 1;"/></g></g><g id="shape-f6fe0475-d562-80ec-8006-4a89679f45f7"><g class="fills" id="fills-f6fe0475-d562-80ec-8006-4a89679f45f7"><rect rx="6.818181818181756" ry="6.818181818181756" x="30.6818181818183" y="155.590909090909" transform="matrix(0.000000, 1.000000, -1.000000, 0.000000, 230.590909, 155.590909)" width="13.636363636363512" height="75" style="fill: rgb(255, 255, 255); fill-opacity: 1;"/></g></g><g id="shape-f6fe0475-d562-80ec-8006-4a89679f45f8"><g class="fills" id="fills-f6fe0475-d562-80ec-8006-4a89679f45f8"><rect rx="6.818181818181813" ry="6.818181818181813" x="30.681818181818244" y="189.6818181818182" transform="matrix(0.000000, 1.000000, -1.000000, 0.000000, 264.681818, 189.681818)" width="13.636363636363626" height="75" style="fill: rgb(255, 255, 255); fill-opacity: 1;"/></g></g></g></g></g></g></g></g></g></g></g></g></g></g></svg>